<?xml version="1.0" encoding="utf-8"?>
<!-- Generator: Adobe Illustrator 25.2.3, SVG Export Plug-In . SVG Version: 6.00 Build 0)  -->
<svg version="1.1" id="Capa_1" xmlns="http://www.w3.org/2000/svg" xmlns:xlink="http://www.w3.org/1999/xlink" x="0px" y="0px"
	 viewBox="0 0 708.66 566.93" style="enable-background:new 0 0 708.66 566.93;" xml:space="preserve">
<style type="text/css">
	.st0{fill:#FFFFFF;}
</style>
<g>
	<g>
		<path class="st0" d="M-145.6,880c0-346.13,0-692.27,0-1038.4c340.8,0,681.6,0,1022.4,0c0,346.13,0,692.27,0,1038.4
			C536,880,195.2,880-145.6,880z M168.57,274.97c0,27.11,0,54.23,0,81.34c0,5.11,0.81,6.04,5.36,6.04
			c27.52,0.01,55.04-0.02,82.56,0.04c3.41,0.01,5.01-1.35,5.01-4.75c-0.01-8.08-0.06-16.17,0.07-24.25
			c0.06-4.23-1.73-5.62-5.95-5.55c-15.32,0.23-30.64,0.13-45.96,0.13c-4.66,0-5.36-0.81-5.34-5.49c0.04-8.23,0.05-16.47,0-24.7
			c-0.03-4.94,0.55-5.66,5.59-5.67c12.34-0.02,24.68-0.05,37.03,0.1c4,0.05,5.69-1.53,5.62-5.54c-0.12-7.38-0.03-14.76-0.03-22.14
			c0-5.46-0.67-6.17-6.1-6.17c-12.06-0.02-24.12,0.03-36.17,0c-5.36-0.01-6.01-0.82-5.95-6.27c0.09-7.95,0.26-15.9,0.01-23.84
			c-0.13-3.97,1.31-5.31,5.14-5.29c15.18,0.1,30.36,0.09,45.54-0.03c3.91-0.03,5.81,1.64,7,5.32c3.14,9.71,6.51,19.34,10.01,28.93
			c5.8,15.92,11.86,31.74,17.62,47.66c6.35,17.56,12.57,35.18,18.67,52.83c1.17,3.39,3.12,4.75,6.57,4.69
			c6.67-0.1,13.34-0.13,20,0.01c3.66,0.07,5.62-1.43,6.9-4.91c8.82-23.88,17.94-47.65,26.72-71.55
			c7.12-19.38,13.92-38.88,20.84-58.32c1.23-3.46,0.32-4.93-3.24-4.96c-8.94-0.06-17.87,0.01-26.81-0.02
			c-3.11-0.01-5.06,1.42-6.09,4.31c-2.33,6.54-4.7,13.07-7.06,19.6c-6.14,17.02-12.25,34.06-18.46,51.06
			c-0.47,1.29-1.6,2.33-2.43,3.49c-0.84-1.21-1.98-2.31-2.46-3.65c-5.38-15.04-10.59-30.14-15.96-45.18
			c-7.14-19.99-14.48-39.91-21.51-59.94c-1.23-3.49-3.27-4.63-6.6-4.65c-7.66-0.05-15.31-0.26-22.97-0.27
			c-26.95-0.04-53.89-0.02-80.84-0.02c-5.79,0-6.34,0.55-6.34,6.29C168.56,220.74,168.56,247.86,168.57,274.97z M541.42,252.91
			c0.71-0.48,1.42-0.97,2.13-1.45c0.74,1.35,1.4,2.74,2.23,4.03c6.94,10.82,13.82,21.69,20.9,32.42
			c8.33,12.64,16.73,25.24,25.31,37.7c7.62,11.07,15.42,22.03,23.43,32.82c1.19,1.6,3.94,2.77,6.03,2.85
			c7.93,0.32,15.89-0.07,23.83,0.18c4.13,0.13,5.47-1.39,5.47-5.42c0.06-32.64,0.29-65.29,0.4-97.93
			c0.07-21.72,0.03-43.44,0.01-65.16c0-5-0.76-5.69-5.61-5.66c-7.66,0.04-15.32,0.02-22.98,0.03c-5.9,0-6.42,0.62-6.41,6.69
			c0.07,33.07,0.1,66.15,0.09,99.22c0,1-0.67,2-1.02,3c-1.04-0.58-2.44-0.9-3.06-1.78c-2.2-3.1-4.08-6.42-6.17-9.6
			c-7.07-10.75-14.11-21.52-21.29-32.19c-8.62-12.81-17.38-25.53-26.04-38.31c-5.31-7.84-10.39-15.85-15.95-23.51
			c-1.27-1.75-4.05-3.27-6.2-3.37c-8.78-0.38-17.59-0.13-26.38-0.19c-3.6-0.02-5.06,1.62-5.02,5.22
			c0.14,14.05,0.18,28.11,0.17,42.16c-0.02,40.88-0.06,81.77-0.16,122.65c-0.01,3.15,1.13,4.95,4.34,4.97
			c9.36,0.04,18.73,0.03,28.09-0.02c2.81-0.01,4.12-1.55,3.91-4.37c-0.08-1.13-0.17-2.27-0.17-3.4c0.04-31.66,0.1-63.31,0.15-94.97
			C541.42,257.33,541.42,255.12,541.42,252.91z M97.8,364.67c2.77-0.34,7.66-0.17,12.01-1.61c22.12-7.36,37.87-21,42.55-45.02
			c3.79-19.49-5.37-40.17-22.64-50.11c-9.76-5.62-20.06-10.35-29.59-16.32c-4.61-2.88-8.57-7.29-11.81-11.74
			c-3.37-4.63-1.82-11,2.58-16.03c4.05-4.62,10.21-6.61,15.3-4.45c5.45,2.31,10.88,4.76,16,7.69c3.27,1.87,5.48,1.51,7.75-1.2
			c5.02-5.97,10.07-11.91,15.14-17.83c2.95-3.45,2.97-5.06-0.29-8.24c-1.1-1.08-2.43-1.94-3.7-2.83
			c-10.24-7.26-21.84-10.93-34.19-11.41c-23.27-0.9-39.45,5.85-50.65,27.53c-8.05,15.58-7.04,31.82-0.12,47.62
			c2.56,5.84,6.19,11.39,12.06,14.49c6.97,3.69,14.2,6.92,21.41,10.13c8.81,3.93,17.92,7.38,23.59,15.87
			c3.27,4.89,3.42,10.29,0.69,15.34c-5.9,10.94-16.33,14.33-27.36,8.56c-5.32-2.78-10.22-6.55-14.86-10.41
			c-2.74-2.29-4.28-2.98-6.8,0.15c-5.86,7.28-12,14.34-18.12,21.41c-2.07,2.39-1.68,4.3,0.56,6.16c2.62,2.17,5.19,4.39,7.87,6.49
			C67.17,358.27,80.29,364.72,97.8,364.67z M435.06,228.1c-0.56-0.14-1.13-0.29-1.69-0.43c-1.13,3.06-2.33,6.09-3.37,9.17
			c-2.84,8.43-5.52,16.92-8.42,25.33c-2.57,7.47-5.44,14.83-8.01,22.3c-3.49,10.14-6.75,20.36-10.23,30.51
			c-4.31,12.59-8.53,25.21-13.2,37.67c-2.8,7.47-4.89,9.89,6.92,9.75c29.92-0.34,59.85-0.06,89.78-0.04c4.89,0,5.59-0.73,5.6-5.72
			c0.02-7.52,0.01-15.04,0-22.57c-0.01-5.72-0.52-6.17-6.43-6.15c-15.46,0.04-30.92,0-46.38,0.11c-3.55,0.03-5.16-1.12-5.06-4.94
			c0.22-8.51,0.26-17.03,0.04-25.54c-0.1-4.09,1.4-5.57,5.44-5.52c12.48,0.15,24.96,0.07,37.44,0.08c4.76,0.01,5.71-0.9,5.73-5.7
			c0.03-7.38,0.01-14.76,0-22.14c-0.01-5.11-0.83-5.92-5.93-5.92c-12.34,0-24.68-0.09-37.02,0.06c-4,0.05-5.79-1.55-5.64-5.5
			c0.27-7.23,0.52-14.45,0.73-21.68C435.39,230.19,435.16,229.15,435.06,228.1z M463.94,223.04c7.93,0,15.87-0.09,23.8,0.04
			c3.28,0.06,4.72-1.31,4.71-4.49c-0.01-8.93-0.03-17.86,0.02-26.79c0.02-3.23-1.45-4.53-4.68-4.52c-16.01,0.07-32.01,0.06-48.02,0
			c-3.8-0.01-5.29,1.67-5.21,5.47c0.18,8.07,0.14,16.15,0.11,24.23c-0.01,4.87,1.07,6.05,5.9,6.06
			C448.36,223.05,456.15,223.05,463.94,223.04z"/>
		<path d="M168.57,274.97c-0.01-27.11-0.01-54.23-0.01-81.34c0-5.74,0.55-6.29,6.34-6.29c26.95,0,53.89-0.02,80.84,0.02
			c7.66,0.01,15.31,0.21,22.97,0.27c3.33,0.02,5.37,1.16,6.6,4.65c7.03,20.03,14.36,39.95,21.51,59.94
			c5.37,15.04,10.59,30.14,15.96,45.18c0.48,1.34,1.63,2.44,2.46,3.65c0.83-1.16,1.96-2.2,2.43-3.49
			c6.21-17,12.32-34.03,18.46-51.06c2.35-6.53,4.72-13.06,7.06-19.6c1.03-2.89,2.99-4.32,6.09-4.31c8.94,0.03,17.87-0.04,26.81,0.02
			c3.57,0.02,4.48,1.5,3.24,4.96c-6.93,19.45-13.72,38.95-20.84,58.32c-8.78,23.9-17.9,47.67-26.72,71.55
			c-1.29,3.48-3.25,4.98-6.9,4.91c-6.66-0.13-13.34-0.11-20-0.01c-3.45,0.05-5.4-1.3-6.57-4.69c-6.1-17.65-12.32-35.26-18.67-52.83
			c-5.76-15.93-11.82-31.75-17.62-47.66c-3.49-9.59-6.87-19.22-10.01-28.93c-1.19-3.68-3.09-5.35-7-5.32
			c-15.18,0.12-30.36,0.13-45.54,0.03c-3.83-0.02-5.26,1.31-5.14,5.29c0.25,7.94,0.08,15.89-0.01,23.84
			c-0.06,5.45,0.59,6.26,5.95,6.27c12.06,0.03,24.12-0.01,36.17,0c5.44,0.01,6.1,0.71,6.1,6.17c0,7.38-0.1,14.76,0.03,22.14
			c0.07,4-1.62,5.59-5.62,5.54c-12.34-0.15-24.68-0.12-37.03-0.1c-5.04,0.01-5.61,0.73-5.59,5.67c0.04,8.23,0.03,16.47,0,24.7
			c-0.02,4.69,0.68,5.5,5.34,5.49c15.32,0,30.64,0.09,45.96-0.13c4.22-0.06,6.01,1.33,5.95,5.55c-0.12,8.08-0.08,16.17-0.07,24.25
			c0,3.4-1.6,4.75-5.01,4.75c-27.52-0.07-55.04-0.03-82.56-0.04c-4.55,0-5.36-0.93-5.36-6.04
			C168.57,329.2,168.57,302.08,168.57,274.97z"/>
		<path d="M541.42,252.91c0,2.21,0,4.42,0,6.63c-0.05,31.66-0.11,63.31-0.15,94.97c0,1.13,0.09,2.27,0.17,3.4
			c0.21,2.82-1.1,4.36-3.91,4.37c-9.36,0.05-18.73,0.06-28.09,0.02c-3.22-0.01-4.35-1.82-4.34-4.97
			c0.1-40.88,0.14-81.77,0.16-122.65c0.01-14.05-0.03-28.11-0.17-42.16c-0.04-3.6,1.42-5.24,5.02-5.22
			c8.8,0.06,17.6-0.19,26.38,0.19c2.15,0.09,4.93,1.61,6.2,3.37c5.56,7.66,10.64,15.66,15.95,23.51
			c8.66,12.78,17.43,25.5,26.04,38.31c7.18,10.68,14.22,21.45,21.29,32.19c2.09,3.18,3.98,6.5,6.17,9.6
			c0.62,0.88,2.02,1.2,3.06,1.78c0.36-1,1.02-2,1.02-3c0.01-33.07-0.02-66.15-0.09-99.22c-0.01-6.07,0.51-6.69,6.41-6.69
			c7.66,0,15.32,0.01,22.98-0.03c4.85-0.02,5.6,0.66,5.61,5.66c0.02,21.72,0.06,43.44-0.01,65.16c-0.11,32.64-0.35,65.29-0.4,97.93
			c-0.01,4.03-1.34,5.55-5.47,5.42c-7.94-0.25-15.89,0.14-23.83-0.18c-2.08-0.08-4.84-1.25-6.03-2.85
			c-8.01-10.79-15.81-21.75-23.43-32.82c-8.58-12.47-16.97-25.07-25.31-37.7c-7.08-10.73-13.96-21.6-20.9-32.42
			c-0.83-1.29-1.49-2.69-2.23-4.03C542.84,251.94,542.13,252.42,541.42,252.91z"/>
		<path d="M97.8,364.67c-17.51,0.05-30.63-6.4-42.61-15.76c-2.68-2.09-5.25-4.32-7.87-6.49c-2.24-1.86-2.63-3.77-0.56-6.16
			c6.12-7.07,12.25-14.13,18.12-21.41c2.52-3.13,4.06-2.44,6.8-0.15c4.64,3.87,9.54,7.63,14.86,10.41
			c11.03,5.77,21.45,2.38,27.36-8.56c2.73-5.06,2.57-10.45-0.69-15.34c-5.67-8.49-14.79-11.95-23.59-15.87
			c-7.21-3.22-14.44-6.44-21.41-10.13c-5.87-3.1-9.5-8.66-12.06-14.49c-6.92-15.79-7.93-32.04,0.12-47.62
			c11.19-21.67,27.38-28.43,50.65-27.53c12.36,0.48,23.95,4.14,34.19,11.41c1.27,0.9,2.6,1.76,3.7,2.83
			c3.26,3.18,3.24,4.8,0.29,8.24c-5.07,5.92-10.12,11.86-15.14,17.83c-2.27,2.7-4.48,3.06-7.75,1.2c-5.13-2.93-10.56-5.38-16-7.69
			c-5.09-2.16-11.25-0.17-15.3,4.45c-4.41,5.04-5.95,11.41-2.58,16.03c3.24,4.45,7.21,8.85,11.81,11.74
			c9.53,5.97,19.83,10.7,29.59,16.32c17.27,9.94,26.43,30.62,22.64,50.11c-4.67,24.02-20.42,37.66-42.55,45.02
			C105.45,364.5,100.57,364.33,97.8,364.67z"/>
		<path d="M435.06,228.1c0.1,1.04,0.33,2.09,0.3,3.13c-0.21,7.23-0.46,14.45-0.73,21.68c-0.15,3.95,1.64,5.55,5.64,5.5
			c12.34-0.14,24.68-0.06,37.02-0.06c5.1,0,5.92,0.81,5.93,5.92c0.02,7.38,0.03,14.76,0,22.14c-0.02,4.8-0.97,5.7-5.73,5.7
			c-12.48-0.01-24.96,0.07-37.44-0.08c-4.04-0.05-5.54,1.43-5.44,5.52c0.21,8.51,0.17,17.03-0.04,25.54
			c-0.1,3.82,1.52,4.97,5.06,4.94c15.46-0.11,30.92-0.07,46.38-0.11c5.91-0.02,6.42,0.43,6.43,6.15c0.01,7.52,0.02,15.04,0,22.57
			c-0.01,4.99-0.71,5.72-5.6,5.72c-29.93-0.02-59.86-0.31-89.78,0.04c-11.81,0.14-9.72-2.28-6.92-9.75
			c4.67-12.45,8.89-25.08,13.2-37.67c3.48-10.15,6.74-20.37,10.23-30.51c2.57-7.47,5.44-14.83,8.01-22.3
			c2.9-8.41,5.58-16.9,8.42-25.33c1.04-3.09,2.24-6.12,3.37-9.17C433.93,227.82,434.5,227.96,435.06,228.1z"/>
		<path d="M463.94,223.05c-7.79,0-15.58,0.01-23.37,0c-4.83,0-5.91-1.19-5.9-6.06c0.02-8.08,0.07-16.16-0.11-24.23
			c-0.09-3.8,1.4-5.48,5.21-5.47c16.01,0.06,32.01,0.07,48.02,0c3.23-0.01,4.7,1.29,4.68,4.52c-0.05,8.93-0.03,17.86-0.02,26.79
			c0,3.18-1.43,4.55-4.71,4.49C479.81,222.95,471.87,223.04,463.94,223.05z"/>
	</g>
</g>
</svg>
