<?xml version="1.0" standalone="no"?>
<!DOCTYPE svg PUBLIC "-//W3C//DTD SVG 20010904//EN"
 "http://www.w3.org/TR/2001/REC-SVG-20010904/DTD/svg10.dtd">
<svg version="1.0" xmlns="http://www.w3.org/2000/svg"
 width="559.000000pt" height="447.000000pt" viewBox="0 0 559.000000 447.000000"
 preserveAspectRatio="xMidYMid meet">

<g transform="translate(0.000000,447.000000) scale(0.100000,-0.100000)"
fill="#000000" stroke="none">
<path d="M684 2991 c-135 -35 -247 -165 -276 -322 -20 -106 24 -263 94 -336
19 -20 82 -54 169 -94 152 -68 220 -117 239 -174 29 -89 -73 -198 -169 -180
-41 7 -97 38 -155 84 -21 17 -44 31 -50 31 -12 0 -176 -192 -176 -207 0 -13
84 -81 148 -120 88 -52 177 -76 275 -72 70 4 94 10 160 41 232 111 327 360
216 569 -42 79 -93 122 -228 194 -139 75 -194 114 -227 165 -33 49 -28 92 17
138 50 51 85 51 184 4 47 -23 92 -39 99 -36 20 8 156 173 156 190 0 19 -55 58
-135 96 -65 30 -78 32 -190 35 -66 1 -134 -1 -151 -6z"/>
<path d="M1335 2978 c-3 -7 -4 -314 -3 -683 l3 -670 360 0 360 0 0 125 0 125
-209 3 c-134 1 -214 6 -223 13 -10 9 -13 45 -13 140 0 71 1 130 3 131 1 1 85
4 187 7 l185 6 0 125 0 125 -174 3 c-110 1 -180 7 -188 14 -10 8 -13 41 -11
137 l3 126 220 0 220 0 89 -245 c48 -135 128 -357 178 -495 49 -137 97 -270
107 -295 l17 -45 117 -3 117 -3 11 28 c99 252 379 1025 379 1047 0 14 -18 16
-129 16 -99 0 -131 -3 -140 -14 -7 -8 -59 -144 -116 -302 -58 -158 -107 -289
-110 -292 -14 -14 -38 39 -115 258 -157 446 -220 614 -232 622 -7 4 -210 8
-451 8 -341 0 -439 -3 -442 -12z"/>
<path d="M3437 2984 c-13 -13 -8 -249 5 -262 14 -14 404 -17 426 -4 9 7 12 41
10 138 l-3 129 -216 3 c-118 1 -218 -1 -222 -4z"/>
<path d="M3997 2983 c-4 -3 -7 -312 -7 -685 l0 -679 138 3 137 3 5 428 c3 235
9 427 13 427 5 1 41 -50 80 -111 190 -301 473 -708 510 -734 29 -20 229 -22
246 -1 8 9 10 196 9 682 l-3 669 -124 3 c-93 2 -126 -1 -133 -10 -4 -7 -8
-199 -8 -425 0 -338 -2 -413 -13 -413 -8 0 -135 180 -282 401 -148 220 -279
411 -292 425 -21 23 -28 24 -146 24 -68 0 -127 -3 -130 -7z"/>
<path d="M3412 2645 c-13 -30 -57 -157 -212 -610 -43 -126 -92 -268 -109 -313
-17 -46 -29 -88 -25 -93 3 -5 176 -9 410 -9 l405 0 -3 128 -3 127 -220 5 -220
5 0 140 0 140 185 5 185 5 0 125 0 125 -185 6 c-102 3 -186 6 -187 7 -1 1 -4
55 -5 120 -3 107 -4 114 -16 87z"/>
</g>
</svg>
